<svg xmlns="http://www.w3.org/2000/svg" xmlns:xlink="http://www.w3.org/1999/xlink" style="display:none">

<symbol id="icon-user" fill="currentColor" viewBox="0 0 20 18">
<path d="M14 2a3.963 3.963 0 0 0-1.4.267 6.439 6.439 0 0 1-1.331 
6.638A4 4 0 1 0 14 2Zm1 9h-1.264A6.957 6.957 0 0 1 15 15v2a2.97 2.97 0 01-.184 1H19a1 1 0 0 0 1-1v-1a5.006 5.006 0 0 0-5-5ZM6.5 9a4.5 4.5 0 1 0 0-9 4.5 4.5 0 0 0 0 9ZM8 10H5a5.006 5.006 0 0 0-5 5v2a1 1 0 0 0 1 1h11a1 1 0 0 0 1-1v-2a5.006 5.006 0 0 0-5-5Z"/>
 </symbol>


<symbol id="dalo" fill="none" viewBox="0 0 24 24" stroke-width="1.5" stroke="currentColor">
<path stroke-linecap="round" stroke-linejoin="round" d="m2.25 12 8.954-8.955c.44-.439 1.152-.439 1.591 
0L21.75 12M4.5 9.75v10.125c0 .621.504 1.125 1.125 1.125H9.75v-4.875c0-.621.504-1.125 
1.125-1.125h2.25c.621 0 1.125.504 1.125 1.125V21h4.125c.621 0 1.125-.504 1.125-1.125V9.75M8.25 21h8.25" />
</symbol>


<symbol id="icon-materia" fill="none" viewBox="0 0 24 24" stroke-width="1.5" stroke="currentColor"> 
<path stroke-linecap="round" stroke-linejoin="round" d="M4.26 10.147a60.438 60.438 0 0 0-.491 6.347A48.62 
48.62 0 0 1 12 20.904a48.62 48.62 0 0 1 8.232-4.41 60.46 60.46 0 0 0-.491-6.347m-15.482 0a50.636 50.636 0 0 
0-2.658-.813A59.906 59.906 0 0 1 12 3.493a59.903 59.903 0 0 1 10.399 5.84c-.896.248-1.783.52-2.658.814m-15.482 
0A50.717 50.717 0 0 1 12 13.489a50.702 50.702 0 0 1 7.74-3.342M6.75 15a.75.75 0 1 0 0-1.5.75.75 0 0 0 0 1.5Zm0 
0v-3.675A55.378 55.378 0 0 1 12 8.443m-7.007 11.55A5.981 5.981 0 0 0 6.75 15.75v-1.5" />
</symbol>

<symbol id="icon-calif" fill="none" viewBox="0 0 24 24" stroke-width="1.5" stroke="currentColor"> 
<path stroke-linecap="round" stroke-linejoin="round" d="M12 6.042A8.967 8.967 0 0 0 6 3.75c-1.052 0-2.062.18-3 
.512v14.25A8.987 8.987 0 0 1 6 18c2.305 0 4.408.867 6 2.292m0-14.25a8.966 8.966 0 0 1 6-2.292c1.052 0 2.062.18 3 
.512v14.25A8.987 8.987 0 0 0 18 18a8.967 8.967 0 0 0-6 2.292m0-14.25v14.25" />
</symbol>

<symbol id="icon-boletas" fill="none" viewBox="0 0 24 24" stroke-width="1.5" stroke="currentColor">
<path stroke-linecap="round" stroke-linejoin="round" d="m16.862 4.487 1.687-1.688a1.875 1.875 0 1 1 2.652 
2.652L10.582 16.07a4.5 4.5 0 0 1-1.897 1.13L6 18l.8-2.685a4.5 4.5 0 0 1 1.13-1.897l8.932-8.931Zm0 0L19.5 7.125M18 
14v4.75A2.25 2.25 0 0 1 15.75 21H5.25A2.25 2.25 0 0 1 3 18.75V8.25A2.25 2.25 0 0 1 5.25 6H10" />
 </symbol>

 
 
<symbol id="icon-grade" fill="none" viewBox="0 0 24 24" stroke-width="1.5" stroke="currentColor">
<path stroke-linecap="round" stroke-linejoin="round" d="M11.35 3.836c-.065.21-.1.433-.1.664 0 .414.336.75.75.75h4.5a.75.75 
0 0 0 .75-.75 2.25 2.25 0 0 0-.1-.664m-5.8 0A2.251 2.251 0 0 1 13.5 2.25H15c1.012 0 1.867.668 2.15 1.586m-5.8 0c-.376.023-.75.05-1.124.08C9.095 
4.01 8.25 4.973 8.25 6.108V8.25m8.9-4.414c.376.023.75.05 1.124.08 1.131.094 1.976 1.057 1.976 2.192V16.5A2.25 2.25 0 0 1 18 18.75h-2.25m-7.5-10.5H4.875c-.621 
0-1.125.504-1.125 1.125v11.25c0 .621.504 1.125 1.125 1.125h9.75c.621 0 1.125-.504 1.125-1.125V18.75m-7.5-10.5h6.375c.621 0 1.125.504 1.125 1.125v9.375m-8.25-3 
1.5 1.5 3-3.75" />
 </symbol>

 <symbol id="icon-delete" fill="none" viewBox="0 0 24 24" stroke-width="1.5" stroke="currentColor"> 
 <path stroke-linecap="round" stroke-linejoin="round" d="m14.74 9-.346 9m-4.788 0L9.26 9m9.968-3.21c.342.052.682.107 1.022.166m-1.022-.165L18.16 19.673a2.25 
 2.25 0 0 1-2.244 2.077H8.084a2.25 2.25 0 0 1-2.244-2.077L4.772 5.79m14.456 0a48.108 48.108 0 0 0-3.478-.397m-12 .562c.34-.059.68-.114 1.022-.165m0 0a48.11 
 48.11 0 0 1 3.478-.397m7.5 0v-.916c0-1.18-.91-2.164-2.09-2.201a51.964 51.964 0 0 0-3.32 0c-1.18.037-2.09 1.022-2.09 2.201v.916m7.5 0a48.667 48.667 0 0 0-7.5 0" />
 </symbol>

<symbol id="icon-edit" fill="none" viewBox="0 0 24 24" stroke-width="1.5" stroke="currentColor"> 
<path stroke-linecap="round" stroke-linejoin="round" d="m16.862 4.487 1.687-1.688a1.875 1.875 0 1 1 2.652 2.652L6.832 19.82a4.5 4.5 0 0 1-1.897 1.13l-2.685.8.8-2.685a4.5 
4.5 0 0 1 1.13-1.897L16.863 4.487Zm0 0L19.5 7.125" />
</symbol>


<symbol id="icon-add" fill="none" viewBox="0 0 24 24" stroke-width="1.5" stroke="currentColor">
  <path stroke-linecap="round" stroke-linejoin="round" d="M12 4.5v15m7.5-7.5h-15" />
</symbol>

<symbol id="icon-nivel" fill="none" viewBox="0 0 24 24" stroke-width="1.5" stroke="currentColor">
  <path stroke-linecap="round" stroke-linejoin="round" d="M3.75 6.75h16.5M3.75 12h16.5M12 17.25h8.25" />
</symbol>



<symbol id="icon-grupos" fill="none" viewBox="0 0 24 24" stroke-width="1.5" stroke="currentColor" class="size-6">
  <path stroke-linecap="round" stroke-linejoin="round" d="M4.26 10.147a60.438 60.438 0 0 0-.491 6.347A48.62 48.62 0 0 1 12 
  20.904a48.62 48.62 0 0 1 8.232-4.41 60.46 60.46 0 0 0-.491-6.347m-15.482 0a50.636 50.636 0 0 0-2.658-.813A59.906 59.906 
  0 0 1 12 3.493a59.903 59.903 0 0 1 10.399 5.84c-.896.248-1.783.52-2.658.814m-15.482 0A50.717 50.717 0 0 1 12 13.489a50.702 
  50.702 0 0 1 7.74-3.342M6.75 15a.75.75 0 1 0 0-1.5.75.75 0 0 0 0 1.5Zm0 0v-3.675A55.378 55.378 0 0 1 12 8.443m-7.007 11.55A5.981 
  5.981 0 0 0 6.75 15.75v-1.5" />

</symbol>

<symbol id="icon-ciclos" fill="none" viewBox="0 0 24 24" stroke-width="1.5" stroke="currentColor" class="size-6">
  <path stroke-linecap="round" stroke-linejoin="round" d="M6.75 3v2.25M17.25 3v2.25M3 18.75V7.5a2.25 2.25 0 0 1 2.25-2.25h13.5A2.25 
  2.25 0 0 1 21 7.5v11.25m-18 0A2.25 2.25 0 0 0 5.25 21h13.5A2.25 2.25 0 0 0 21 18.75m-18 0v-7.5A2.25 2.25 0 0 1 5.25 9h13.5A2.25 
  2.25 0 0 1 21 11.25v7.5m-9-6h.008v.008H12v-.008ZM12 15h.008v.008H12V15Zm0 2.25h.008v.008H12v-.008ZM9.75 15h.008v.008H9.75V15Zm0 
  2.25h.008v.008H9.75v-.008ZM7.5 15h.008v.008H7.5V15Zm0 2.25h.008v.008H7.5v-.008Zm6.75-4.5h.008v.008h-.008v-.008Zm0 2.25h.008v.008h-.008V15Zm0 
  2.25h.008v.008h-.008v-.008Zm2.25-4.5h.008v.008H16.5v-.008Zm0 2.25h.008v.008H16.5V15Z" />
</symbol>

<symbol id="icon-materias" fill="none" viewBox="0 0 24 24" stroke-width="1.5" stroke="currentColor" class="size-6">
  <path stroke-linecap="round" stroke-linejoin="round" d="M9 12h3.75M9 15h3.75M9 18h3.75m3 .75H18a2.25 2.25 0 0 0 
  2.25-2.25V6.108c0-1.135-.845-2.098-1.976-2.192a48.424 48.424 0 0 0-1.123-.08m-5.801 0c-.065.21-.1.433-.1.664 0 
  .414.336.75.75.75h4.5a.75.75 0 0 0 .75-.75 2.25 2.25 0 0 0-.1-.664m-5.8 0A2.251 2.251 0 0 1 13.5 2.25H15c1.012 0 
  1.867.668 2.15 1.586m-5.8 0c-.376.023-.75.05-1.124.08C9.095 4.01 8.25 4.973 8.25 6.108V8.25m0 0H4.875c-.621 0-1.125.504-1.125 
  1.125v11.25c0 .621.504 1.125 1.125 1.125h9.75c.621 0 1.125-.504 1.125-1.125V9.375c0-.621-.504-1.125-1.125-1.125H8.25ZM6.75 
  12h.008v.008H6.75V12Zm0 3h.008v.008H6.75V15Zm0 3h.008v.008H6.75V18Z" />


</symbol>

<symbol id="icon-asistencias" fill="none" viewBox="0 0 24 24" stroke-width="1.5" stroke="currentColor" class="size-6">
   <path stroke-linecap="round" stroke-linejoin="round" d="M9 12.75 11.25 15 15 9.75M21 12a9 9 0 1 1-18 0 9 9 0 0 1 18 0Z" />


</symbol>



 </svg>